<svg width="610" height="100" viewBox="0 0 610 100" fill="none" xmlns="http://www.w3.org/2000/svg">
<path d="M56.5372 57.1765V64.8074C52.6532 67.3129 47.3487 66.5809 46.984 63.9806C46.2414 58.68 53.6617 60.6918 56.5372 57.1765ZM42.9526 46.3659C43.7004 47.6759 44.4456 48.982 45.1947 50.2933C51.1734 49.4889 55.9579 49.0399 56.8571 51.2307C54.1778 58.5418 41.1883 53.1161 40.9777 62.3665C40.8697 67.0957 43.94 69.455 46.535 69.9264C52.1292 71.4457 56.5859 69.7842 62.1854 69.4735L62.0919 51.9785C62.0563 44.237 51.3695 43.2416 42.9526 46.3659ZM84.5372 45.5483C84.0645 47.169 83.7907 48.5831 83.3154 50.2051C81.3537 50.0445 79.1958 49.3519 77.2301 49.3296C73.8372 49.294 72.7036 53.4624 75.9741 54.4169C86.0881 57.3687 88.7898 65.7133 80.1595 69.9566C77.3381 71.3483 70.6511 70.561 67.0331 69.0008C67.8006 67.5091 68.5603 66.0161 69.32 64.5231C70.4904 65.1274 71.4529 66.0687 72.7392 66.336C79.3709 67.6855 82.324 62.0742 76.739 59.9466C72.6681 58.3996 68.5761 56.6261 67.985 52.7962C67.3978 48.9609 70.3311 45.3969 74.5482 44.9743C78.103 44.6241 81.2891 44.7215 84.5372 45.5483ZM91.0425 33.6476H96.2891V46.067C104.428 43.4681 110.224 44.7162 112.69 49.9207C112.893 56.613 112.69 63.4777 112.69 70.3569H107.445V54.0535C107.445 48.1525 96.2891 49.5745 96.2891 52.8001V70.3569H91.0425V33.6476ZM124.419 70.3569H119.177L119.149 50.1208C119.149 49.3967 119.052 47.88 119.585 47.1967C121.482 44.7702 132.463 44.7518 135.109 45.1652L132.236 49.9694C129.018 49.8667 125.45 49.556 124.473 50.8371L124.419 70.3569ZM146.99 44.6991C157.405 44.6991 158.588 54.1364 158.588 59.9005L141.223 59.7991H141.19C141.19 59.9005 141.213 60.044 141.19 60.2033C140.955 61.878 143.203 66.3097 148.861 65.9002C149.647 65.8423 153.748 65.3973 154.663 64.4506L156.983 67.6947C154.953 69.5564 150.089 70.5965 147.256 70.5965C140.748 70.5965 135.413 64.8825 135.413 57.6083C135.413 50.3302 140.479 44.6991 146.99 44.6991ZM152.633 55.1687C152.522 52.3564 151.091 49.3783 147.082 49.3783C143.22 49.3783 141.43 52.3906 141.434 55.2569L152.633 55.1687ZM180.088 50.1261V65.708C166.119 68.7533 165.907 52.1958 173.722 50.1261C175.847 49.7338 177.967 49.8891 180.088 50.1261ZM162.509 57.923C162.509 65.4789 168.822 70.7795 176.603 70.7795C177.806 70.7795 178.971 70.6426 180.088 70.3832V82.3642L185.329 80.9963V46.046C180.934 45.1033 175.153 44.8953 170.625 46.0183C165.897 47.1914 162.509 51.2584 162.509 57.923ZM0 69.1351V46.782C6.66987 44.029 12.9316 43.9263 18.7865 46.4765C25.3431 43.2601 35.581 44.3081 35.581 52.2985V69.1351L29.9328 69.0824V52.5829C29.8209 51.3466 29.622 50.6541 28.0711 50.1419C25.4405 49.2756 22.8008 49.7166 20.4638 50.7647V69.1351H14.6616V50.7647C11.5584 49.2098 8.29586 48.6489 5.19002 50.7647V69.1351H0Z" fill="#274392"/>
<path d="M459.369 57.4566C458.076 53.2791 456.227 50.1074 452.378 50.5419C451.308 51.1699 450.636 52.5734 450.623 53.4924C452.686 56.751 456.178 56.9195 459.369 57.4566ZM521.435 38.9888C520.449 39.9762 518.941 41.3573 516.915 43.1479C516.075 42.4514 514.729 41.1796 512.866 39.314C511.214 41.0321 509.85 42.3079 508.778 43.1479C507.828 42.4514 506.322 41.0729 504.26 38.9888L508.56 34.7981C509.405 35.4959 510.84 36.8388 512.866 38.8466L516.915 34.7981C517.577 35.2075 519.083 36.6255 521.435 38.9888ZM516.182 32.5809C515.68 33.5986 514.657 34.8204 513.08 36.2555C512.271 35.5893 511.072 34.4781 509.512 32.9009C509.813 32.3808 510.947 31.1458 512.866 29.2262L516.182 32.5809ZM567.005 65.0429V64.274C567.005 64.1265 566.489 62.016 565.428 60.1149C564.378 58.2255 562.73 56.9642 562.464 56.6259C562.098 56.1374 561.534 55.8886 560.783 55.8886C559.602 55.8886 558.189 56.9866 556.922 58.9062C555.961 60.3189 555.225 61.417 554.678 63.0245C556.825 65.0244 562.464 65.4642 565.675 65.2167C566.281 65.1706 566.724 65.1587 567.005 65.0429ZM596.822 71.0636H555.246C553.861 70.7608 552.052 69.855 551.136 68.5529C550.399 70.6015 549.635 71.0636 548.63 71.0636H486.062C484.601 75.7823 482.845 79.0264 480.842 81.1251C478.303 83.7503 472.398 85.3579 467.901 85.3579C467.078 83.911 467.057 82.4575 467.835 81.0092C470.683 80.8315 473.86 79.5293 476.162 77.5387C478.61 75.415 479.538 72.5869 479.538 69.8155C479.538 67.2468 477.894 60.8785 475.051 57.8924L480.108 53.7149C481.796 54.9814 483.899 58.9997 486.022 65.0429H501.305C501.305 65.0113 501.336 64.8783 501.394 64.6123C501.403 61.8659 500.215 59.1142 497.839 56.3678C498.621 55.2895 499.86 53.8005 501.558 51.8664C505.383 55.5094 507.001 59.8739 507.014 64.9533H513.244L513.423 64.5228C514.097 61.5671 512.747 58.8443 510.086 56.3678L513.716 51.8664C518.479 55.4172 518.946 60.6389 518.644 64.9533H526.479L526.567 64.5228C526.717 63.0166 526.109 56.51 521.871 52.7195L526.46 48.8409C529.384 51.7163 532.322 57.6699 531.789 65.1311H542.292C546.79 65.1311 548.101 62.7533 550.181 60.1596C551.448 57.7094 552.732 55.2751 554.028 52.8538C555.549 50.2443 557.895 48.9291 561.067 48.9291C563.031 48.9291 564.814 49.9468 566.423 51.9994C567.413 53.2659 568.622 55.4212 570.066 58.4612C571.497 61.4999 572.56 64.5228 573.252 65.3931H591.263L590.854 35.3681L595.746 33.4736C596.105 46.0062 596.466 58.5323 596.822 71.0636ZM609.362 69.9129L603.71 70.8859L602.661 35.0508L608.327 34.0779L609.362 69.9129ZM457.431 62.7178C454.472 62.2069 450.819 61.176 448.643 60.1451C445.579 58.4783 444.909 55.0578 447.398 50.5419C448.455 48.6223 449.806 46.4631 451.802 45.552C458.542 42.4764 461.43 46.3433 463.199 51.4082C466.256 60.1544 464.249 65.8552 457.164 69.3613C448.793 71.6548 441.612 71.481 433.871 70.8859C425.281 70.2184 421.923 67.0731 420.943 59.6435C420.393 55.4528 421.904 50.2575 425.478 45.9167C426.219 46.2274 427.41 47.1385 429.018 48.6315C427.263 51.7742 426.366 55.1987 426.366 57.7805C426.366 59.6567 426.978 61.2695 428.396 62.4215C433.053 65.7393 451.072 65.6419 456.666 63.9014C457.596 63.6117 457.489 63.4564 457.431 62.7178ZM463.542 36.2687C462.754 37.1982 461.356 38.6688 459.339 40.6872L455.117 36.5676L451.121 40.6872L446.952 36.478C447.441 35.8158 448.829 34.3768 451.121 32.1543L455.117 36.1621L459.339 32.1543L463.542 36.2687Z" fill="#274392"/>
<path d="M194.097 84.711C239.027 104.44 281.518 105.734 321.106 84.711C299.832 75.0445 278.457 69.9704 256.955 69.9704C236.12 69.9717 215.168 74.7378 194.097 84.711Z" fill="url(#paint0_linear)"/>
<path d="M327.843 72.2824C307.989 41.9296 279.603 24.885 240.96 24.0134C261.812 56.9638 290.557 73.7965 327.843 72.2824Z" fill="url(#paint1_linear)"/>
<path d="M334.436 63.3137C337.036 37.8956 326.876 16.5088 301.884 2.28882e-05C299.28 27.5866 310.144 49.0405 334.436 63.3137Z" fill="url(#paint2_linear)"/>
<path d="M348.111 60.8832C361.108 44.2638 362.709 26.0093 351.084 6.07866C335.821 23.5341 334.862 42.0454 348.111 60.8832Z" fill="url(#paint3_linear)"/>
<path d="M360.126 61.6429C377.832 57.1362 386.964 45.2591 387.237 25.7696C368.5 30.2842 359.26 42.3442 360.126 61.6429Z" fill="url(#paint4_linear)"/>
<path d="M369.701 70.2772C384.982 73.0684 396.317 68.3853 401.703 54.3188C399.071 53.8185 396.566 53.5683 394.189 53.5683C383.036 53.5683 374.725 59.0901 369.701 70.2772Z" fill="url(#paint5_linear)"/>
<defs>
<linearGradient id="paint0_linear" x1="323.029" y1="83.6446" x2="213.818" y2="85.9198" gradientUnits="userSpaceOnUse">
<stop stop-color="#EFE300"/>
<stop offset="0.515152" stop-color="#F49D31"/>
<stop offset="1" stop-color="#E85336"/>
</linearGradient>
<linearGradient id="paint1_linear" x1="336.058" y1="77.7071" x2="226.036" y2="16.2125" gradientUnits="userSpaceOnUse">
<stop stop-color="#EFE300"/>
<stop offset="0.515152" stop-color="#F49D31"/>
<stop offset="1" stop-color="#E85336"/>
</linearGradient>
<linearGradient id="paint2_linear" x1="336.067" y1="67.8545" x2="295.488" y2="-12.886" gradientUnits="userSpaceOnUse">
<stop stop-color="#EFE300"/>
<stop offset="0.515152" stop-color="#F49D31"/>
<stop offset="1" stop-color="#E85336"/>
</linearGradient>
<linearGradient id="paint3_linear" x1="345.652" y1="68.91" x2="351.09" y2="9.50663" gradientUnits="userSpaceOnUse">
<stop stop-color="#EFE300"/>
<stop offset="0.515152" stop-color="#F49D31"/>
<stop offset="1" stop-color="#E85336"/>
</linearGradient>
<linearGradient id="paint4_linear" x1="351.144" y1="72.4727" x2="394.65" y2="15.9984" gradientUnits="userSpaceOnUse">
<stop stop-color="#EFE300"/>
<stop offset="0.515152" stop-color="#F49D31"/>
<stop offset="1" stop-color="#E85336"/>
</linearGradient>
<linearGradient id="paint5_linear" x1="364.279" y1="74.5391" x2="421.591" y2="42.3277" gradientUnits="userSpaceOnUse">
<stop stop-color="#EFE300"/>
<stop offset="0.515152" stop-color="#F49D31"/>
<stop offset="1" stop-color="#E85336"/>
</linearGradient>
</defs>
</svg>
